<svg width="512" height="512" viewBox="0 0 512 512" fill="none" xmlns="http://www.w3.org/2000/svg">
<path d="M256 0C114.637 0 0 114.637 0 256C0 397.363 114.637 512 256 512C397.363 512 512 397.363 512 256C512 114.637 397.363 0 256 0ZM289.027 400.566C226.031 401.652 202.168 355.691 202.168 323.34V228.859H172.898V191.508C216.773 175.688 227.32 136.117 229.797 113.574C229.969 112.023 231.188 111.414 231.883 111.414H274.23V185.078H332.105V228.863H274.031V318.883C274.219 331.121 278.711 348.004 301.863 347.383C309.531 347.191 319.813 344.961 325.191 342.395L339.098 383.625C333.887 391.309 310.281 400.203 289.027 400.566V400.566Z" fill="white"/>
</svg>
